<svg width="53" height="21" viewBox="0 0 53 21" fill="none" xmlns="http://www.w3.org/2000/svg">
<path d="M1.63086 20.3014V18.9797H2.86474V20.3014H3.51415V17.2781H2.86474V18.4676H1.63086V17.2781H0.981445V20.3014H1.63086Z" fill="#333333"/>
<path d="M9.22912 17.2781V18.9136C9.22912 19.4258 9.21288 19.8884 8.57971 19.8884C7.94653 19.8884 7.93029 19.4258 7.93029 18.9136V17.2781H7.26465V19.178C7.26465 19.9875 7.84912 20.3675 8.57971 20.3675C9.31029 20.3675 9.89476 19.971 9.89476 19.178V17.2781H9.22912Z" fill="#333333"/>
<path d="M15.6582 19.1944V19.8056C15.4958 19.8552 15.3335 19.9047 15.09 19.9047C14.473 19.9047 14.2133 19.4752 14.2133 18.7979C14.2133 18.1205 14.4568 17.691 15.025 17.691C15.4147 17.691 15.642 17.9388 15.642 18.2031H16.2914C16.2914 17.6084 15.7718 17.2119 14.9763 17.2119C14.3594 17.2119 13.5151 17.5918 13.5151 18.7813C13.5151 19.9874 14.3269 20.3508 15.0413 20.3508C15.6582 20.3508 16.0641 20.2186 16.2914 20.1195V18.6822H15.0575V19.1778H15.6582V19.1944Z" fill="#333333"/>
<path d="M45.7582 18.1205C45.7582 17.5092 45.1575 17.1788 44.6055 17.1788C44.0535 17.1788 43.4365 17.5258 43.4365 18.1205C43.4365 18.5501 43.745 18.7814 44.1671 18.9135C44.297 18.9466 44.5243 19.0292 44.6379 19.0622C45.0438 19.1779 45.1899 19.2935 45.1899 19.5413C45.1899 19.8717 44.8652 19.9874 44.6866 19.9874C44.1996 19.9874 44.021 19.7065 44.021 19.3596H43.3716C43.3716 20.0369 43.8586 20.4169 44.6704 20.4169C45.3036 20.4169 45.8718 20.07 45.8718 19.4587C45.8718 18.9796 45.5146 18.7153 45.06 18.5831C44.8977 18.5335 44.7516 18.5005 44.5892 18.4509C44.2321 18.3353 44.0697 18.2362 44.0697 18.0214C44.0697 17.8066 44.2321 17.6249 44.573 17.6249C44.9302 17.6249 45.0925 17.8562 45.0925 18.1536H45.7582V18.1205Z" fill="#333333"/>
<path d="M52.1224 18.1205C52.1224 17.5092 51.5217 17.1788 50.9697 17.1788C50.4177 17.1788 49.8008 17.5258 49.8008 18.1205C49.8008 18.5501 50.1093 18.7814 50.5314 18.9135C50.6613 18.9466 50.8885 19.0292 51.0022 19.0622C51.4081 19.1779 51.5542 19.2935 51.5542 19.5413C51.5542 19.8717 51.2295 19.9874 51.0509 19.9874C50.5638 19.9874 50.3853 19.7065 50.3853 19.3596H49.7358C49.7358 20.0369 50.2229 20.4169 51.0347 20.4169C51.6678 20.4169 52.2361 20.07 52.2361 19.4587C52.2361 18.9796 51.8789 18.7153 51.4243 18.5831C51.262 18.5335 51.1158 18.5005 50.9535 18.4509C50.5963 18.3353 50.434 18.2362 50.434 18.0214C50.434 17.8066 50.5963 17.6249 50.9373 17.6249C51.2944 17.6249 51.4568 17.8562 51.4568 18.1536H52.1224V18.1205Z" fill="#333333"/>
<path d="M21.454 20.4004C22.4768 20.4004 22.9314 19.7065 22.9314 18.7979C22.9314 17.8892 22.4768 17.1954 21.454 17.1954C20.4312 17.1954 19.9766 17.8892 19.9766 18.7979C19.9766 19.7065 20.4312 20.4004 21.454 20.4004ZM21.454 17.658C22.1034 17.658 22.2333 18.2527 22.2333 18.7814C22.2333 19.31 22.1034 19.9048 21.454 19.9048C20.8046 19.9048 20.6747 19.31 20.6747 18.7814C20.6747 18.2692 20.8046 17.658 21.454 17.658Z" fill="#333333"/>
<path d="M31.6986 20.3343C32.2993 20.3343 32.8513 20.037 32.8513 19.4752C32.8513 19.0127 32.4941 18.7483 32.137 18.7153C32.3805 18.6822 32.7052 18.4179 32.7052 18.0379C32.7052 17.4927 32.2993 17.2449 31.6661 17.2449H30.3511V20.3343H31.6986ZM31.0005 19.8552V18.9631H31.585C31.8772 18.9631 32.1207 19.0457 32.1207 19.3926C32.1207 19.7231 31.861 19.8387 31.585 19.8387H31.0005V19.8552ZM31.0005 18.517V17.724H31.6012C31.861 17.724 32.0233 17.9058 32.0233 18.1205C32.0233 18.3518 31.8122 18.5005 31.5687 18.5005H31.0005V18.517Z" fill="#333333"/>
<path d="M38.0952 20.4169C39.118 20.4169 39.5889 19.7065 39.5889 18.7979C39.5889 17.8727 39.118 17.1788 38.0952 17.1788C37.0724 17.1788 36.6016 17.8892 36.6016 18.7979C36.6016 19.7065 37.0724 20.4169 38.0952 20.4169ZM38.0952 17.6414C38.7609 17.6414 38.8907 18.2362 38.8907 18.7814C38.8907 19.3265 38.7609 19.9213 38.0952 19.9213C37.4296 19.9213 37.2997 19.3265 37.2997 18.7814C37.2997 18.2527 37.4296 17.6414 38.0952 17.6414Z" fill="#333333"/>
<path d="M40.8227 10.2071C40.9526 11.76 40.287 14.6677 35.9521 14.8494C34.0364 14.932 31.6336 14.3208 30.6757 13.8747V10.141H31.1465C31.2439 10.6036 32.1531 14.0564 35.319 14.2216C37.1535 14.3042 38.5498 13.5278 38.5823 11.9748C38.631 10.174 36.6665 9.54625 34.8968 8.83585C32.8999 8.02633 30.9679 7.21681 30.6919 5.01954C30.3997 2.4423 32.7213 0.691089 35.4001 0.806735C36.8775 0.872818 38.355 1.23628 39.4914 1.69886V4.85434H39.0206C38.7446 3.13617 37.738 1.51713 35.4326 1.36844C34.0851 1.28584 32.8674 1.79798 32.8674 3.28486C32.8674 4.77173 35.3027 5.383 37.0724 6.0934C38.8583 6.82031 40.6117 7.81156 40.8227 10.2071Z" fill="#333333"/>
<path d="M52.918 10.2071C53.0479 11.76 52.3823 14.6677 48.0475 14.8494C46.1317 14.932 43.7289 14.3208 42.771 13.8747V10.141H43.2418C43.3392 10.6036 44.2484 14.0564 47.4143 14.2216C49.2489 14.3042 50.6451 13.5278 50.6776 11.9748C50.7263 10.174 48.7618 9.54625 46.9922 8.83585C44.9952 8.02633 43.0632 7.21681 42.8035 5.01954C42.495 2.4423 44.8166 0.691089 47.4955 0.806735C48.9729 0.872818 50.4503 1.23628 51.5868 1.69886V4.85434H51.1159C50.8399 3.13617 49.8333 1.51713 47.5279 1.36844C46.1804 1.28584 44.9628 1.79798 44.9628 3.28486C44.9628 4.77173 47.398 5.383 49.1677 6.0934C50.9536 6.82031 52.707 7.81156 52.918 10.2071Z" fill="#333333"/>
<path d="M14.5381 7.86108C14.5381 3.89608 17.6877 0.69104 21.5842 0.69104C25.4807 0.69104 28.6303 3.89608 28.6303 7.86108C28.6303 11.8261 25.4807 15.0311 21.5842 15.0311C17.6877 15.0311 14.5381 11.8096 14.5381 7.86108ZM21.5842 14.4198C24.3442 14.3868 25.3021 10.8018 25.3021 7.84456C25.3021 4.87081 24.1007 1.25275 21.5842 1.25275C18.9378 1.23623 17.8663 4.88733 17.8663 7.84456C17.8663 10.8018 18.8242 14.4529 21.5842 14.4198Z" fill="#333333"/>
<path d="M1.53344 13.5277C1.53344 13.9242 1.07885 14.1225 0.656737 14.1225H0.332031V14.6346H7.50803C10.0407 14.6346 12.7358 13.4451 12.7683 10.8018C12.8007 7.77846 9.76473 7.24979 8.80685 7.16719C10.3005 6.91938 12.0701 5.64728 11.989 3.82998C11.8916 1.89705 9.87838 0.988403 7.97885 0.988403L0.413208 1.00492V1.51707H0.802854C1.09509 1.51707 1.54968 1.59967 1.54968 2.02922V13.5277H1.53344ZM4.60191 14.0729V7.53065H6.37156C8.36849 7.53065 9.40755 8.96796 9.48873 10.6035C9.60238 12.553 8.17367 14.0729 6.37156 14.0729H4.60191ZM4.60191 7.00198V1.51707H6.09556C7.55673 1.51707 8.75814 2.45876 8.82308 4.1604C8.88802 5.77944 7.68661 7.00198 6.17673 7.00198H4.60191Z" fill="#333333"/>
</svg>
