<svg width="73" height="21" viewBox="0 0 73 21" fill="none" xmlns="http://www.w3.org/2000/svg">
<path fill-rule="evenodd" clip-rule="evenodd" d="M50.5158 9.05402C50.1461 9.05402 49.8585 8.84862 49.8585 8.47892C49.8585 7.90382 50.4336 7.16441 51.0087 7.16441C51.3784 7.16441 51.5427 7.49303 51.5427 7.82166C51.5838 8.43784 51.173 9.05402 50.5158 9.05402Z" fill="#333333"/>
<path fill-rule="evenodd" clip-rule="evenodd" d="M13.9148 17.3108C11.6555 18.9128 8.49248 20.8024 5.65807 20.8024C2.74149 20.8024 0.646484 18.8307 0.646484 15.9141C0.646484 14.3121 1.26266 12.7511 1.961 11.3544C3.31659 8.64322 5.32943 6.17851 7.67091 4.24784C9.47836 2.76903 11.6555 1.61881 13.9559 1.0437C14.5721 0.879378 15.2293 0.797241 15.8455 0.797241C16.6671 0.797241 17.5297 0.920497 18.2692 1.29016L19.3372 1.86527C19.5426 1.98853 19.7891 1.98853 19.9945 1.98853C20.7749 1.98853 21.4322 1.53667 22.0484 1.08477L22.2949 1.37235C20.8571 2.31713 20.2409 3.34409 19.6658 4.94616L19.4194 4.78183C19.5426 4.41217 19.6248 4.08352 19.6248 3.7138C19.6248 1.90634 17.3654 1.0437 15.8044 1.0437C14.6543 1.0437 13.504 1.41342 12.4771 1.90634C8.78002 3.7138 5.82238 7.00008 4.01493 10.6971C3.15227 12.4635 2.49502 14.4353 2.49502 16.4481C2.49502 18.7896 3.80953 20.3917 6.19208 20.3917C8.74682 20.3917 11.6507 18.491 13.7728 17.102L13.9559 16.9822C14.2845 16.2017 14.6543 15.5034 15.1883 14.8461C16.7903 12.7511 19.3372 10.615 22.0895 10.615C23.5272 10.615 24.2255 11.3133 24.2666 12.71L25.2114 11.1079H26.9367L22.8699 18.2145L22.8248 18.3041C22.6704 18.6096 22.5002 18.9461 22.5002 19.2826C22.5002 19.6933 22.911 19.9398 23.3218 19.9398C24.3019 19.9398 25.3568 19.1167 26.0938 18.5416L26.1973 18.461C28.128 16.9822 29.8944 15.2568 31.0446 13.0797L32.1537 11.0669H34.0022L33.5093 11.9706C34.413 11.4366 35.481 10.9847 36.5491 10.9847C37.1653 10.9847 37.7404 11.2723 37.7404 11.9295C37.7404 12.4225 37.4939 12.7921 37.1242 13.1208C37.2063 13.1619 37.2474 13.2029 37.3296 13.2029C37.64 13.2029 37.9138 13.0196 38.151 12.8608L38.1922 12.8333C39.7532 11.8474 41.191 10.4918 42.0947 8.9308L43.3681 6.75362H45.0934L42.9163 10.5739H45.4631L45.3399 10.9025H42.793L38.5209 18.2967C38.3565 18.5842 38.1922 18.9128 38.1922 19.2415C38.1922 19.6523 38.6852 19.8577 39.0549 19.8577C39.8175 19.8577 40.5016 19.387 41.1457 18.9439L41.191 18.9128C42.3412 18.0913 43.4092 17.0643 44.3951 16.0784C45.1345 15.339 45.8328 14.5996 46.449 13.778C46.7776 13.3262 47.0652 12.8743 47.3527 12.4225L48.1332 11.149H49.8174L45.6274 18.5431C45.4631 18.7896 45.381 19.1182 45.381 19.4058C45.381 19.7344 45.6274 20.022 45.9561 20.022C46.9419 20.022 48.0511 19.2004 48.7905 18.5431L51.8303 15.873C53.5145 13.9013 56.2668 10.7793 59.1012 10.7793C60.0049 10.7793 61.0319 11.2312 61.0319 12.2581C61.0319 13.0387 60.4978 13.778 60.0049 14.3121C58.8958 15.5034 57.2526 16.2017 55.7327 16.6125C54.9523 16.8179 54.1718 16.8589 53.3913 16.8589C53.1448 17.434 52.8983 18.0091 52.8983 18.6253C52.8983 19.488 53.6788 20.2274 54.5415 20.2274C56.6365 20.2274 59.7173 18.0502 61.2373 16.8589C62.5107 15.832 63.702 14.6407 64.77 13.4083C64.8314 13.3347 64.8937 13.261 64.9563 13.187C65.3122 12.7662 65.6756 12.3365 65.9202 11.8474L66.331 11.1079H68.0563L66.8239 13.4905C68.1795 12.2581 69.8227 11.0258 71.7123 11.0258C72.3285 11.0258 72.8214 11.3955 72.8214 12.0528C72.8214 12.6279 72.2874 13.3262 71.6712 13.3262C71.3426 13.3262 71.0139 12.9975 71.0139 12.6689C71.0139 12.1349 71.589 11.7652 72.082 11.7652C72.1641 11.7652 72.2874 11.7652 72.3695 11.8063C72.2052 11.4776 71.9587 11.3133 71.589 11.3133C70.6853 11.3133 69.8227 11.7652 69.0832 12.176C67.399 13.1619 66.1256 14.7229 65.1397 16.366L62.675 20.556H60.9086L64.8932 13.6959C64.0306 14.7229 63.1269 15.6676 62.0999 16.5303C60.9497 17.5162 59.7173 18.3789 58.4439 19.1593C57.1294 19.9398 55.6095 20.6792 54.0485 20.6792C52.5286 20.6792 51.132 19.8166 51.132 18.1735C51.132 17.7159 51.2381 17.2937 51.3519 16.8413L51.3784 16.7357C51.2476 16.8562 51.1116 16.983 50.9709 17.1143C49.4319 18.5494 47.3243 20.5149 45.2166 20.5149C44.354 20.5149 43.6557 20.2274 43.6557 19.2826C43.6557 18.7553 43.9564 18.2582 44.2233 17.8169C44.2684 17.7424 44.3125 17.6695 44.354 17.5984L45.7507 15.1336C44.354 16.6535 42.9163 18.1323 41.232 19.2826C40.2872 19.9398 39.2192 20.556 38.069 20.556C37.3296 20.556 36.5491 20.1041 36.5491 19.2826C36.5491 18.6791 36.8866 18.1062 37.1903 17.5906C37.2164 17.5464 37.2422 17.5025 37.2675 17.4592C37.2886 17.4231 37.3093 17.3873 37.3296 17.3519L40.9034 11.0669C40.2462 11.683 39.5889 12.2581 38.8905 12.7921C38.8395 12.8296 38.7878 12.8679 38.7356 12.9066L38.7309 12.9101C38.1543 13.338 37.5059 13.8191 36.7545 13.8191C36.2615 13.8191 35.8508 13.5316 35.8508 12.9975C35.8508 12.4635 36.3026 12.0528 36.8366 12.0528C37.0009 12.0528 37.1242 12.0938 37.2474 12.176C37.2885 12.0938 37.3296 11.9706 37.3296 11.8474C37.3296 11.4776 36.8777 11.2723 36.5902 11.2723C35.6864 11.2723 34.7416 11.7241 34.0022 12.1349C33.2628 12.5867 32.7699 13.3262 32.3591 14.0656L28.6209 20.556H26.8135L29.4836 15.9141C27.7172 17.8037 24.8006 20.5971 22.0895 20.5971C21.35 20.5971 20.6928 20.2274 20.6928 19.4469C20.6928 18.9539 20.8982 18.5021 21.1036 18.0502C19.8301 19.4058 18.0638 20.8024 16.092 20.8024C14.8186 20.8024 13.7094 19.8987 13.7094 18.5842C13.6684 18.1323 13.7916 17.7216 13.9148 17.3108ZM23.9791 12.3814C23.9791 11.4366 23.2397 10.8615 22.3359 10.8615C21.309 10.8615 20.4874 11.3544 19.7069 11.9295C18.1048 13.0797 16.7493 14.7229 15.8866 16.4892C15.558 17.1465 15.2704 17.8037 15.2704 18.5842C15.2704 19.4058 15.7634 20.1863 16.6671 20.1863C18.7621 20.1863 20.9803 17.8448 22.2127 16.2427C22.9521 15.2158 23.9791 13.6548 23.9791 12.3814ZM54.0075 16.4892H53.5145L53.63 16.2962C54.6632 14.5687 56.7574 11.0669 58.8136 11.0669C59.3066 11.0669 59.8406 11.2723 59.8406 11.8063C59.8406 12.7921 58.8958 14.0245 58.1975 14.6818C57.1294 15.7088 55.5274 16.4892 54.0075 16.4892Z" fill="#333333"/>
</svg>
