<svg width="70" height="12" viewBox="0 0 70 12" fill="none" xmlns="http://www.w3.org/2000/svg">
<path fill-rule="evenodd" clip-rule="evenodd" d="M0.241211 1.01665L1.28514 2.14442V10.4407L0.515243 11.5296L5.26514 11.5425L4.40389 10.5444L4.31255 7.56293L8.8928 7.58885C10.3021 7.13515 11.7245 6.18886 11.8028 4.27034C11.7767 2.41664 10.6022 1.23702 9.23208 0.990723L0.241211 1.01665ZM4.15596 1.54813V6.87589L7.67923 6.90182C8.47523 6.2796 9.08854 5.81293 9.06244 4.32219C9.04939 3.11664 8.78841 2.05368 7.60093 1.54813H4.15596Z" fill="#333333"/>
<path fill-rule="evenodd" clip-rule="evenodd" d="M13.9951 0.964623L15.039 2.0924V10.3887L14.2691 11.4776L19.019 11.4905L18.1578 10.4924L18.0665 7.5109H18.0795L22.986 11.5294L27.0573 11.5035L23.3383 8.41831H20.2326L19.1365 7.52386L22.6337 7.53683C24.0169 7.09609 25.4523 6.14979 25.5175 4.23128C25.4914 2.37758 24.317 1.18499 22.9468 0.95166L13.9951 0.964623ZM17.9099 1.48314V6.8109L21.4331 6.83683C22.2291 6.21461 22.8424 5.74794 22.8163 4.25721C22.8033 3.05165 22.5423 1.98869 21.3548 1.48314H17.9099Z" fill="#333333"/>
<path fill-rule="evenodd" clip-rule="evenodd" d="M31.0111 0.95166H35.1086L40.4457 10.4405C40.6806 11.1794 41.3722 11.0887 41.8289 11.3998H36.6614L37.4313 11.1664L37.3791 10.4535L36.0481 8.40534L31.507 8.43127L30.5414 10.4016C30.5153 10.622 30.2543 10.8035 30.45 11.0757L30.8154 11.4127L28.584 11.3609L29.5496 11.0757L33.2164 3.67387V3.16832L31.6766 1.21092L31.0111 0.95166ZM31.8071 7.77016L33.6862 4.34795L35.6436 7.74423L31.8071 7.77016Z" fill="#333333"/>
<path fill-rule="evenodd" clip-rule="evenodd" d="M58.7406 0.964722H62.8381L68.1752 10.4665C68.41 11.2054 69.1016 11.1147 69.5584 11.4258H64.3909L65.1608 11.1925L65.1086 10.4795L63.7776 8.44433L59.2365 8.47026L58.2708 10.4406C58.2448 10.661 57.9838 10.8425 58.1795 11.1147L58.5449 11.4517L56.3135 11.3999L57.2791 11.1147L60.9459 3.71286V3.20731L59.3931 1.22398L58.7406 0.964722ZM59.5366 7.78322L61.4157 4.36101L63.3731 7.75729L59.5366 7.78322Z" fill="#333333"/>
<path fill-rule="evenodd" clip-rule="evenodd" d="M43.2512 0.847961L50.5587 0.88685C52.9076 1.41833 54.4082 2.7924 54.8649 5.19054L54.8519 7.07017C54.4213 9.20905 53.012 10.6868 50.5457 11.4387L43.2251 11.4516V11.2313C44.3343 11.1535 44.4256 11.0239 44.4256 10.4016V1.85907C44.4126 1.3924 44.3212 1.09426 43.2381 1.06833L43.2512 0.847961ZM47.4008 1.57389L47.3878 10.8165C48.3534 10.8165 49.1886 10.9072 49.6583 10.6739C50.7284 10.2072 51.2242 9.48127 51.2764 8.8072L51.2503 3.36277C51.2503 2.49425 50.2586 1.87203 49.6975 1.71648C49.2799 1.56092 48.4709 1.56092 47.4008 1.57389Z" fill="#333333"/>
</svg>
