<svg width="100" height="14" viewBox="0 0 100 14" fill="none" xmlns="http://www.w3.org/2000/svg">
<path fill-rule="evenodd" clip-rule="evenodd" d="M23.0213 3.64856L23.413 5.99851H23.1891C22.8534 4.54378 21.5666 3.92832 20.1118 3.92832C19.888 3.92832 19.6642 3.92832 19.3845 4.04022V8.0687H19.944C21.119 8.0687 21.7904 7.62109 21.7904 6.66992H22.0142V9.97104H21.8463C21.7344 9.24367 21.5106 8.34845 19.9999 8.34845H19.4404V12.0972C19.4404 12.7126 19.7202 13.0483 20.6154 13.0483V13.2722H16.6429V13.0483C17.5381 13.0483 17.8178 12.7126 17.8178 12.0972V4.82353C17.8178 4.26402 17.4821 3.87236 16.5869 3.87236V3.64856H23.0213Z" fill="#333333"/>
<path fill-rule="evenodd" clip-rule="evenodd" d="M31.0223 3.64856L31.4139 5.99851H31.1901C30.8544 4.54378 29.5675 3.92832 28.1128 3.92832C27.889 3.92832 27.6652 3.92832 27.3854 4.04022V8.0687H27.945C29.1199 8.0687 29.7913 7.62109 29.7913 6.66992H30.0151V9.97104H29.8473C29.7354 9.24367 29.5116 8.34845 28.0009 8.34845H27.4414V12.0972C27.4414 12.7126 27.7212 13.0483 28.6164 13.0483V13.2722H24.6438V13.0483C25.5391 13.0483 25.8188 12.7126 25.8188 12.0972V4.82353C25.8188 4.26402 25.4831 3.87236 24.5879 3.87236V3.64856H31.0223Z" fill="#333333"/>
<path fill-rule="evenodd" clip-rule="evenodd" d="M14.6843 3.64856V3.87236C14.0129 3.87236 13.6212 4.20807 13.6212 4.82353V12.0412C13.6212 12.7126 14.0688 12.9924 14.6843 12.9924V13.2162H10.9355V12.9924C11.607 12.9364 11.9986 12.6567 11.9986 12.0412V4.82353C11.9986 4.20807 11.607 3.87236 10.9355 3.87236V3.64856H14.6843Z" fill="#333333"/>
<path fill-rule="evenodd" clip-rule="evenodd" d="M9.81672 1.01886L10.2084 3.92832H10.0405C9.48102 2.41764 8.41795 1.41052 6.45966 1.41052V11.6496C6.45966 12.7686 7.07512 13.1043 7.74653 13.1043V13.3281H3.27044V13.1043C3.88591 13.1043 4.66922 12.7686 4.66922 11.6496V1.35457C2.65498 1.35457 1.70381 2.30574 0.976447 3.92832H0.808594L1.1443 1.01886H9.81672Z" fill="#333333"/>
<path fill-rule="evenodd" clip-rule="evenodd" d="M64.4811 10.1389C64.4811 11.6496 65.5442 12.7686 67.1108 12.7686C67.7822 12.7686 68.5655 12.4329 69.125 11.8174L65.9918 7.84488C65.2085 8.01273 64.4811 8.852 64.4811 10.1389ZM68.7334 4.15211C68.7334 2.92118 68.1739 2.30572 67.1108 2.30572C66.0477 2.30572 65.4323 2.92118 65.4323 3.9283C65.4323 5.10328 66.9989 6.66991 66.9989 6.66991C68.2298 5.99849 68.7334 5.27113 68.7334 4.15211ZM67.2227 6.94966L69.9084 10.3067C69.9084 10.3067 70.1881 9.74722 70.2441 9.24366C70.2441 8.6282 69.9084 8.40439 69.4048 8.29249V8.12464H72.3143C72.3143 8.12464 72.3702 8.29249 72.3143 8.29249C71.7547 8.40439 71.3631 8.57224 70.9714 8.852C70.6357 9.24366 70.4679 9.57936 70.1322 10.4746L71.3631 11.9853C71.9226 12.6007 72.594 12.9364 73.3773 12.9924V13.2162H70.1881V12.9924L69.2929 11.9293C68.5655 12.6567 67.3346 13.3281 66.1596 13.3281C64.2573 13.3281 63.0264 12.265 63.0264 10.8103C63.0264 9.18771 64.537 8.18059 65.712 7.39727C65.712 7.39727 64.4251 5.94254 64.4251 4.59972C64.4251 3.08904 65.6001 1.91406 67.1668 1.91406C68.5655 1.91406 69.6846 2.92118 69.6846 4.15211C69.6846 5.66279 68.062 6.27825 67.2227 6.94966Z" fill="#333333"/>
<path fill-rule="evenodd" clip-rule="evenodd" d="M86.5815 0.795044L86.6934 4.65567H86.4696C86.078 2.47358 84.6232 1.24265 82.8328 1.24265C80.6507 1.24265 79.14 3.76045 79.14 7.17347C79.14 11.3698 80.8186 13.1043 83.1125 13.1043C85.5184 13.1043 86.4696 10.8662 86.6934 9.29961H86.9172V10.9781C86.5256 11.7055 85.2946 13.3281 82.7768 13.3281C79.5876 13.3281 77.0698 10.6984 77.0698 7.17347C77.0698 3.98426 79.8674 1.01885 82.7768 1.01885C84.4554 1.01885 84.903 1.74621 85.5744 1.74621C86.078 1.74621 86.3018 1.41051 86.3018 0.795044H86.5815V0.795044Z" fill="#333333"/>
<path fill-rule="evenodd" clip-rule="evenodd" d="M98.2756 11.4817C98.7791 11.4817 99.1708 11.8733 99.1708 12.3769C99.1708 12.8805 98.7791 13.2162 98.2756 13.2162C97.772 13.2162 97.3804 12.8805 97.3804 12.3769C97.3804 11.8733 97.772 11.4817 98.2756 11.4817Z" fill="#333333"/>
<path fill-rule="evenodd" clip-rule="evenodd" d="M89.4913 8.29248C89.4913 11.2579 90.6663 13.1043 92.4567 13.1043C94.3031 13.1043 95.4781 11.4257 95.4781 8.29248C95.4781 5.43898 94.4709 3.87235 92.5127 3.81639C90.4984 3.76044 89.4913 5.66278 89.4913 8.29248ZM92.4567 3.59259C95.1983 3.59259 97.4923 5.66278 97.4923 8.46034C97.4923 11.146 95.3102 13.2721 92.5127 13.2721C89.771 13.2721 87.4771 11.09 87.4771 8.46034C87.4771 5.83063 89.7151 3.59259 92.4567 3.59259Z" fill="#333333"/>
<path fill-rule="evenodd" clip-rule="evenodd" d="M34.7709 5.66276L36.3935 9.63529H33.1483L34.7709 5.66276ZM40.1422 13.0483C39.8065 13.0483 39.5268 12.7126 39.3589 12.4888C39.247 12.265 35.4983 3.14496 35.4983 3.14496L32.0853 11.4817C31.6936 12.5447 31.1341 13.0483 30.4067 13.0483V13.2721H33.2043V13.0483C32.6448 12.9924 32.2531 12.7126 32.2531 12.3209C32.2531 11.9852 33.1483 9.85909 33.1483 9.85909H36.5054C36.5054 9.85909 37.4566 11.8733 37.4566 12.3209C37.5125 12.6566 36.953 13.0483 36.4495 13.0483V13.2721H40.1422V13.0483Z" fill="#333333"/>
<path fill-rule="evenodd" clip-rule="evenodd" d="M41.6527 11.5936C41.6527 12.4888 41.0932 12.8805 40.4777 13.0483V13.2721H43.2753V13.0483C42.492 12.8805 42.0443 12.321 42.0443 11.5936V5.32709L48.5906 13.44V5.60685C48.5906 4.48783 49.2061 3.81641 49.9334 3.81641V3.64856H46.8002V3.81641C47.6954 4.09617 48.3109 4.59973 48.3109 5.6628V10.4746L42.8277 3.64856H40.2539V3.81641C41.3729 3.87236 41.6527 4.76758 41.6527 4.99139V11.5936Z" fill="#333333"/>
<path fill-rule="evenodd" clip-rule="evenodd" d="M50.2695 3.87236C50.6612 3.87236 50.7731 3.87236 51.0528 4.43188C51.0528 4.43188 54.0183 9.18772 54.0183 9.24367V12.0972C54.0183 12.7126 53.4587 13.0483 52.6754 13.1043V13.2722H56.8158V13.1043C56.0884 13.0483 55.5849 12.7126 55.5849 12.0972V8.74011C55.5849 8.74011 57.4872 5.32709 57.6551 4.99139C58.1027 4.26402 58.7181 3.81641 59.5015 3.76046V3.64856H56.1444L56.2003 3.76046C57.2634 3.76046 57.5432 4.76758 57.1515 5.38304L55.3611 8.62821L53.2349 4.87948C52.8992 4.31997 53.3468 3.76046 54.1302 3.76046V3.64856H50.2695V3.87236Z" fill="#333333"/>
</svg>
