<svg width="46" height="44" viewBox="0 0 46 44" fill="none" xmlns="http://www.w3.org/2000/svg">
<path d="M23 0.0703125C10.4152 0.0703125 0.0703125 8.92537 0.0703125 20C0.0703125 26.4273 3.62196 32.0866 9 35.7129C8.9916 35.9285 9.0081 36.2807 8.72656 37.3242C8.37782 38.617 7.67319 40.4317 6.24023 42.4648C6.14239 42.6038 6.0845 42.7669 6.07285 42.9364C6.0612 43.1059 6.09624 43.2754 6.17416 43.4264C6.25208 43.5774 6.36989 43.7041 6.5148 43.7929C6.65971 43.8816 6.82617 43.9289 6.99609 43.9297C13.1734 43.9566 16.7488 39.9048 17.3047 39.252C19.1335 39.6591 21.0284 39.9297 23 39.9297C35.5839 39.9297 45.9297 31.0747 45.9297 20C45.9297 8.92531 35.5839 0.0703125 23 0.0703125ZM23 1.92969C34.7161 1.92969 44.0703 10.0887 44.0703 20C44.0703 29.9113 34.7161 38.0703 23 38.0703C20.998 38.0703 19.0635 37.8312 17.2305 37.3848C17.0588 37.3427 16.8786 37.3506 16.7112 37.4073C16.5437 37.464 16.396 37.5673 16.2852 37.7051C16.2852 37.7051 13.3949 40.9848 8.78711 41.7598C9.62014 40.2649 10.2352 38.8699 10.5215 37.8086C10.9205 36.3294 10.9258 35.3262 10.9258 35.3262C10.9258 35.1695 10.8863 35.0154 10.8108 34.8782C10.7353 34.7409 10.6264 34.6249 10.4941 34.541C5.2672 31.2276 1.92969 25.9433 1.92969 20C1.92969 10.0886 11.2828 1.92969 23 1.92969ZM12 13C11.8675 12.9981 11.7359 13.0226 11.613 13.072C11.49 13.1214 11.3781 13.1948 11.2837 13.2878C11.1893 13.3809 11.1144 13.4918 11.0632 13.614C11.0121 13.7363 10.9858 13.8675 10.9858 14C10.9858 14.1325 11.0121 14.2637 11.0632 14.386C11.1144 14.5082 11.1893 14.6191 11.2837 14.7122C11.3781 14.8052 11.49 14.8786 11.613 14.928C11.7359 14.9774 11.8675 15.0019 12 15H34C34.1325 15.0019 34.2641 14.9774 34.387 14.928C34.51 14.8786 34.6219 14.8052 34.7163 14.7122C34.8107 14.6191 34.8856 14.5082 34.9368 14.386C34.9879 14.2637 35.0142 14.1325 35.0142 14C35.0142 13.8675 34.9879 13.7363 34.9368 13.614C34.8856 13.4918 34.8107 13.3809 34.7163 13.2878C34.6219 13.1948 34.51 13.1214 34.387 13.072C34.2641 13.0226 34.1325 12.9981 34 13H12ZM8 19C7.86749 18.9981 7.73593 19.0226 7.61296 19.072C7.48999 19.1214 7.37807 19.1948 7.2837 19.2878C7.18933 19.3809 7.11439 19.4918 7.06324 19.614C7.0121 19.7363 6.98576 19.8675 6.98576 20C6.98576 20.1325 7.0121 20.2637 7.06324 20.386C7.11439 20.5082 7.18933 20.6191 7.2837 20.7122C7.37807 20.8052 7.48999 20.8786 7.61296 20.928C7.73593 20.9774 7.86749 21.0019 8 21H25C25.1325 21.0019 25.2641 20.9774 25.387 20.928C25.51 20.8786 25.6219 20.8052 25.7163 20.7122C25.8107 20.6191 25.8856 20.5082 25.9368 20.386C25.9879 20.2637 26.0142 20.1325 26.0142 20C26.0142 19.8675 25.9879 19.7363 25.9368 19.614C25.8856 19.4918 25.8107 19.3809 25.7163 19.2878C25.6219 19.1948 25.51 19.1214 25.387 19.072C25.2641 19.0226 25.1325 18.9981 25 19H8ZM31 19C30.8675 18.9981 30.7359 19.0226 30.613 19.072C30.49 19.1214 30.3781 19.1948 30.2837 19.2878C30.1893 19.3809 30.1144 19.4918 30.0632 19.614C30.0121 19.7363 29.9858 19.8675 29.9858 20C29.9858 20.1325 30.0121 20.2637 30.0632 20.386C30.1144 20.5082 30.1893 20.6191 30.2837 20.7122C30.3781 20.8052 30.49 20.8786 30.613 20.928C30.7359 20.9774 30.8675 21.0019 31 21H38C38.1325 21.0019 38.2641 20.9774 38.387 20.928C38.51 20.8786 38.6219 20.8052 38.7163 20.7122C38.8107 20.6191 38.8856 20.5082 38.9368 20.386C38.9879 20.2637 39.0142 20.1325 39.0142 20C39.0142 19.8675 38.9879 19.7363 38.9368 19.614C38.8856 19.4918 38.8107 19.3809 38.7163 19.2878C38.6219 19.1948 38.51 19.1214 38.387 19.072C38.2641 19.0226 38.1325 18.9981 38 19H31ZM12 25C11.8675 24.9981 11.7359 25.0226 11.613 25.072C11.49 25.1214 11.3781 25.1948 11.2837 25.2878C11.1893 25.3809 11.1144 25.4918 11.0632 25.614C11.0121 25.7363 10.9858 25.8675 10.9858 26C10.9858 26.1325 11.0121 26.2637 11.0632 26.386C11.1144 26.5082 11.1893 26.6191 11.2837 26.7122C11.3781 26.8052 11.49 26.8786 11.613 26.928C11.7359 26.9774 11.8675 27.0019 12 27H34C34.1325 27.0019 34.2641 26.9774 34.387 26.928C34.51 26.8786 34.6219 26.8052 34.7163 26.7122C34.8107 26.6191 34.8856 26.5082 34.9368 26.386C34.9879 26.2637 35.0142 26.1325 35.0142 26C35.0142 25.8675 34.9879 25.7363 34.9368 25.614C34.8856 25.4918 34.8107 25.3809 34.7163 25.2878C34.6219 25.1948 34.51 25.1214 34.387 25.072C34.2641 25.0226 34.1325 24.9981 34 25H12Z" fill="#F54B64"/>
</svg>
