<svg width="27" height="48" viewBox="0 0 27 48" fill="none" xmlns="http://www.w3.org/2000/svg">
<path d="M11.25 5.1455e-05C10.9336 0.0625515 10.668 0.269582 10.5312 0.562551L9.75 2.25005C9.34375 2.43365 4.26562 4.7149 1.09375 6.0938C0.734375 6.25396 0.503906 6.60943 0.5 7.00005C0.5 10.8126 2.12891 13.7774 3.65625 16.1876C5.18359 18.5977 6.5 20.5001 6.5 22.0001C6.5 22.418 6.30078 22.8204 5.78125 23.4688C5.26172 24.1172 4.48438 24.9297 3.6875 26.0626C2.09375 28.3282 0.5 31.8555 0.5 38C0.5 38.5508 0.949219 39 1.5 39H12.5V48H14.5V39H25.5C26.0508 39 26.5 38.5508 26.5 38C26.5 31.8555 24.9062 28.3282 23.3125 26.0626C22.5156 24.9297 21.7383 24.1172 21.2188 23.4688C20.6992 22.8204 20.5 22.418 20.5 22.0001C20.5 20.5001 21.8164 18.5977 23.3438 16.1876C24.8711 13.7774 26.5 10.8126 26.5 7.00005C26.4961 6.60943 26.2656 6.25396 25.9062 6.0938C22.7344 4.7149 17.6562 2.43365 17.25 2.25005L16.4688 0.562551C16.3008 0.214895 15.9492 -0.00385455 15.5625 5.1455e-05H11.4375C11.4062 5.1455e-05 11.375 5.1455e-05 11.3438 5.1455e-05C11.3125 5.1455e-05 11.2812 5.1455e-05 11.25 5.1455e-05ZM12.0938 2.00005H14.9062L15.5938 3.43755C15.6992 3.64849 15.8789 3.81255 16.0938 3.9063C16.0938 3.9063 21.0156 6.12115 24.375 7.5938C24.207 10.5352 23.0312 12.9571 21.6562 15.1251C21.5469 15.2969 21.4219 15.4571 21.3125 15.6251C21.293 15.6329 21.2695 15.6446 21.25 15.6563C21.25 15.6563 20.5195 16.0001 19.5 16.0001C18.0586 16.0001 17.1875 15.2501 17.1875 15.2501C16.9531 15.0508 16.6445 14.9727 16.3438 15.0313C15.9648 15.1094 15.668 15.3946 15.5742 15.7696C15.4805 16.1407 15.6094 16.5352 15.9062 16.7813C15.9062 16.7813 17.3398 18.0001 19.5 18.0001C19.625 18.0001 19.7266 17.9766 19.8438 17.9688C19.082 19.2579 18.5 20.5508 18.5 22.0001C18.5 23.0821 19.0508 23.9571 19.6562 24.7188C20.2617 25.4805 20.9844 26.2227 21.6875 27.2188C23 29.086 24.2695 31.9063 24.4375 37H2.5625C2.73047 31.9063 4 29.086 5.3125 27.2188C6.01562 26.2227 6.73828 25.4805 7.34375 24.7188C7.94922 23.9571 8.5 23.0821 8.5 22.0001C8.5 20.5508 7.91797 19.2579 7.15625 17.9688C7.27344 17.9766 7.375 18.0001 7.5 18.0001C9.66016 18.0001 11.0938 16.7813 11.0938 16.7813C11.4297 16.4922 11.5352 16.0196 11.3555 15.6172C11.1758 15.211 10.75 14.9727 10.3125 15.0313C10.1289 15.0547 9.95703 15.1329 9.8125 15.2501C9.8125 15.2501 8.94141 16.0001 7.5 16.0001C6.48047 16.0001 5.75 15.6563 5.75 15.6563C5.73047 15.6446 5.70703 15.6329 5.6875 15.6251C5.68359 15.6211 5.66016 15.629 5.65625 15.6251C5.55078 15.461 5.44922 15.293 5.34375 15.1251C3.96875 12.9571 2.79297 10.5352 2.625 7.5938C5.98438 6.12115 10.9062 3.9063 10.9062 3.9063C11.1211 3.81255 11.3008 3.64849 11.4062 3.43755L12.0938 2.00005Z" fill="#F54B64"/>
</svg>
