<svg width="21" height="20" viewBox="0 0 21 20" fill="none" xmlns="http://www.w3.org/2000/svg">
<g opacity="0.5">
<path d="M3.37669 7.84086C3.83266 6.2507 4.78034 4.84572 6.0839 3.82727C7.38745 2.80882 8.97997 2.22919 10.6332 2.17146C12.2864 2.11373 13.9155 2.58086 15.2869 3.50589C16.6583 4.43093 17.7017 5.76639 18.2675 7.32086" stroke="black" stroke-linejoin="round"/>
<path d="M18.1241 13.0452C17.5348 14.4418 16.553 15.6374 15.2977 16.487C14.0424 17.3367 12.5676 17.8039 11.052 17.832C9.53649 17.8601 8.04535 17.4478 6.75944 16.6453C5.47353 15.8427 4.4481 14.6843 3.80749 13.3105" stroke="black" stroke-linejoin="round"/>
<path d="M7.33469 12.5202L3.6229 12.7632L2.24451 16.294" stroke="black"/>
<path d="M14.3955 7.80029L18.2502 7.79082L19.5663 4.28137" stroke="black"/>
</g>
</svg>
