<svg width="51" height="42" viewBox="0 0 51 42" fill="none" xmlns="http://www.w3.org/2000/svg">
<path d="M34.7185 0.912231C28.738 0.912231 23.8748 5.77551 23.8748 11.756C23.8748 12.1154 23.9646 12.4669 23.9998 12.8185C16.6052 12.1115 10.0662 8.54895 5.62476 3.09973C5.41773 2.83801 5.09741 2.69739 4.76148 2.72083C4.42945 2.74426 4.13257 2.93567 3.96851 3.22473C3.03491 4.8302 2.49976 6.67786 2.49976 8.66223C2.49976 11.0646 3.35913 13.2638 4.68726 15.0685C4.42945 14.9552 4.1482 14.8927 3.90601 14.756C3.59741 14.5919 3.22632 14.5997 2.92554 14.7794C2.62476 14.9591 2.44116 15.2833 2.43726 15.631V15.756C2.43726 19.4396 4.34351 22.6388 7.15601 24.5997C7.12476 24.5958 7.09351 24.6075 7.06226 24.5997C6.71851 24.5411 6.37085 24.6622 6.14038 24.924C5.90991 25.1857 5.8357 25.549 5.93726 25.881C7.05445 29.3536 9.90601 32.006 13.4373 32.9747C10.6248 34.6466 7.36304 35.631 3.84351 35.631C3.08179 35.631 2.35132 35.5919 1.62476 35.506C1.15601 35.4435 0.706789 35.7169 0.550539 36.1622C0.390383 36.6075 0.566164 37.1036 0.968508 37.3497C5.48023 40.2443 10.8357 41.9435 16.5935 41.9435C25.9255 41.9435 33.2459 38.045 38.156 32.4747C43.0662 26.9044 45.6248 19.67 45.6248 12.9122C45.6248 12.6271 45.6013 12.3497 45.5935 12.0685C47.4255 10.6661 49.0623 9.02161 50.3435 7.09973C50.5974 6.72864 50.5701 6.23254 50.2771 5.88879C49.988 5.54504 49.4998 5.43958 49.0935 5.63098C48.5779 5.86145 47.9763 5.88489 47.4373 6.06848C48.1482 5.11926 48.7576 4.09583 49.1248 2.94348C49.2498 2.54895 49.113 2.11536 48.7888 1.85754C48.4646 1.60364 48.0115 1.57239 47.656 1.78723C45.949 2.79895 44.0584 3.50989 42.0623 3.94348C40.1248 2.13098 37.574 0.912231 34.7185 0.912231ZM34.7185 2.91223C37.2693 2.91223 39.574 4.00208 41.1873 5.72473C41.4294 5.97473 41.7849 6.0802 42.1248 6.00598C43.4294 5.74817 44.6677 5.36926 45.8748 4.88098C45.1794 5.81848 44.3201 6.61926 43.3123 7.22473C42.8552 7.44739 42.6404 7.97473 42.8084 8.4552C42.9724 8.93176 43.4724 9.20911 43.9685 9.09973C44.9685 8.97864 45.8591 8.57239 46.8123 8.31848C45.9568 9.24426 45.0193 10.0802 43.9998 10.8185C43.7224 11.0216 43.5701 11.3497 43.5935 11.6935C43.6091 12.0997 43.6248 12.5021 43.6248 12.9122C43.6248 19.1622 41.2263 25.9474 36.656 31.131C32.0857 36.3146 25.3748 39.9435 16.5935 39.9435C12.6052 39.9435 8.8396 39.0607 5.43726 37.506C9.65601 37.1818 13.5466 35.6896 16.6873 33.2247C17.0154 32.963 17.1443 32.5255 17.0115 32.1271C16.8787 31.7286 16.5115 31.4552 16.0935 31.4435C12.7966 31.3849 10.0349 29.4669 8.56226 26.756C8.61695 26.756 8.66382 26.756 8.71851 26.756C9.70679 26.756 10.6834 26.631 11.5935 26.381C12.031 26.2521 12.3318 25.8458 12.3162 25.3888C12.3005 24.9318 11.9763 24.5411 11.531 24.4435C7.97241 23.7247 5.30445 20.8263 4.68726 17.2247C5.69507 17.5724 6.72632 17.8458 7.84351 17.881C8.30054 17.9083 8.7146 17.6232 8.85523 17.1896C8.99585 16.756 8.82398 16.2794 8.43726 16.0372C6.06226 14.4474 4.49976 11.7404 4.49976 8.66223C4.49976 7.52161 4.79663 6.47473 5.18726 5.47473C10.1873 10.963 17.1873 14.6075 25.0935 15.006C25.406 15.0216 25.7107 14.8927 25.9138 14.6544C26.1169 14.4122 26.1951 14.0919 26.1248 13.7872C25.9724 13.1388 25.8748 12.4513 25.8748 11.756C25.8748 6.85754 29.8201 2.91223 34.7185 2.91223Z" fill="#F54B64"/>
</svg>
