<svg width="95" height="15" viewBox="0 0 95 15" fill="none" xmlns="http://www.w3.org/2000/svg">
<path fill-rule="evenodd" clip-rule="evenodd" d="M91.543 0.598389H94.8379C94.4849 0.892583 94.2496 1.24562 94.2496 1.71633V13.1311C94.2496 13.6018 94.4849 13.9548 94.8379 14.249H91.543C91.896 13.9548 92.1314 13.6018 92.1314 13.1311V1.71633C92.1314 1.18678 91.896 0.833744 91.543 0.598389Z" fill="#333333"/>
<path fill-rule="evenodd" clip-rule="evenodd" d="M14.5818 5.48282C14.0522 4.30604 13.4638 3.1881 12.4636 2.30552C11.4045 1.42294 10.0512 0.834547 8.63906 0.834547C4.9322 0.834547 3.28472 4.18836 3.28472 7.48334C3.28472 10.6606 4.87337 13.8968 8.46254 13.8968C9.93351 13.8968 11.3456 13.2496 12.2282 12.1316V9.54271C12.2282 8.83664 11.9929 8.36593 11.4633 7.95405H15.2879C14.876 8.42477 14.6406 8.89548 14.6406 9.54271V12.1316C12.8755 13.7791 10.7573 14.7205 8.34486 14.7205C4.04962 14.7794 0.578125 11.6609 0.578125 7.30683C0.578125 3.01159 3.99078 0.0696411 8.16834 0.0696411C10.7573 0.0696411 12.8755 1.01106 14.5818 2.95275V5.48282Z" fill="#333333"/>
<path fill-rule="evenodd" clip-rule="evenodd" d="M23.8784 0.598389H27.4676C26.9969 0.951422 26.8204 1.36329 26.8204 1.95168V10.3068C26.8204 12.6015 29.527 13.7195 31.4686 13.7195C33.4103 13.7195 35.9404 12.6015 35.9404 10.3656V1.95168C35.9404 1.36329 35.8227 1.01026 35.4108 0.598389H37.3525C36.9407 1.01026 36.823 1.42213 36.823 1.95168V10.3656C36.823 13.3664 33.2926 14.5432 30.8214 14.5432C28.2913 14.5432 24.5845 13.4253 24.5845 10.3068V1.95168C24.5256 1.36329 24.2903 0.951422 23.8784 0.598389Z" fill="#333333"/>
<path fill-rule="evenodd" clip-rule="evenodd" d="M59.7114 5.54074C59.2407 4.36397 58.6523 3.30487 57.7109 2.42228C56.6518 1.48086 55.3573 0.89247 53.9452 0.89247C50.2384 0.89247 48.3555 4.12861 48.3555 7.42359C48.3555 10.7774 50.2972 13.9547 53.9452 13.9547C56.6518 13.9547 58.5935 12.0719 59.7114 9.77715V12.2484C58.0639 13.8959 55.8869 14.7785 53.4745 14.7785C49.0616 14.7785 45.7666 11.9542 45.7666 7.42359C45.8254 2.95183 49.0027 0.0687256 53.298 0.0687256C55.7104 0.0687256 58.0051 0.89247 59.7114 2.53996V5.54074Z" fill="#333333"/>
<path fill-rule="evenodd" clip-rule="evenodd" d="M82.7761 5.54099C82.3054 4.36421 81.717 3.30511 80.7756 2.42252C79.7165 1.4811 78.422 0.892713 77.0099 0.892713C73.3031 0.892713 71.479 4.12885 71.479 7.42383C71.479 10.7776 73.4207 13.955 77.0687 13.955C79.7753 13.955 81.717 12.0721 82.835 9.77739V12.2486C81.1286 13.8961 79.0104 14.7787 76.598 14.7787C72.1851 14.7787 68.8901 11.9544 68.8901 7.42383C68.8901 3.01091 72.0674 0.127808 76.3627 0.127808C78.7751 0.127808 81.0698 0.951552 82.7761 2.59904V5.54099Z" fill="#333333"/>
</svg>
