<svg width="23" height="22" viewBox="0 0 23 22" fill="none" xmlns="http://www.w3.org/2000/svg">
<path d="M7.17994 0.439941C3.73953 0.439941 0.939941 3.23953 0.939941 6.67994V15.3199C0.939941 18.7603 3.73953 21.5599 7.17994 21.5599H15.8199C19.2603 21.5599 22.0599 18.7603 22.0599 15.3199V6.67994C22.0599 3.23953 19.2603 0.439941 15.8199 0.439941H7.17994ZM7.17994 1.39994H15.8199C18.7415 1.39994 21.0999 3.75843 21.0999 6.67994V15.3199C21.0999 18.2415 18.7415 20.5999 15.8199 20.5999H7.17994C4.25843 20.5999 1.89994 18.2415 1.89994 15.3199V6.67994C1.89994 3.75843 4.25843 1.39994 7.17994 1.39994ZM17.2599 4.27994C17.0053 4.27994 16.7612 4.38108 16.5811 4.56112C16.4011 4.74115 16.2999 4.98533 16.2999 5.23994C16.2999 5.49455 16.4011 5.73873 16.5811 5.91876C16.7612 6.0988 17.0053 6.19994 17.2599 6.19994C17.5145 6.19994 17.7587 6.0988 17.9388 5.91876C18.1188 5.73873 18.2199 5.49455 18.2199 5.23994C18.2199 4.98533 18.1188 4.74115 17.9388 4.56112C17.7587 4.38108 17.5145 4.27994 17.2599 4.27994ZM11.4999 5.71994C8.58956 5.71994 6.21994 8.08956 6.21994 10.9999C6.21994 13.9103 8.58956 16.2799 11.4999 16.2799C14.4103 16.2799 16.7799 13.9103 16.7799 10.9999C16.7799 8.08956 14.4103 5.71994 11.4999 5.71994ZM11.4999 6.67994C13.8915 6.67994 15.8199 8.60839 15.8199 10.9999C15.8199 13.3915 13.8915 15.3199 11.4999 15.3199C9.10839 15.3199 7.17994 13.3915 7.17994 10.9999C7.17994 8.60839 9.10839 6.67994 11.4999 6.67994Z" fill="#333333"/>
</svg>
