<svg width="126" height="8" viewBox="0 0 126 8" fill="none" xmlns="http://www.w3.org/2000/svg">
<path d="M65.1157 1.46481L65.186 1.39368L65.1158 1.46481L65.2032 1.55119C66.3473 2.68167 66.3528 4.52733 65.2155 5.66464L65.1281 5.75205C63.9955 6.88458 62.1594 6.88458 61.0268 5.75206L60.9394 5.66464C59.8021 4.52732 59.8076 2.68167 60.9517 1.55118L61.0392 1.46481C62.1688 0.348612 63.9861 0.348613 65.1157 1.46481ZM60.8851 6.17896C62.0936 7.40141 64.0661 7.40704 65.2816 6.19152L66.8191 4.65408C67.3629 4.11023 68.1006 3.80469 68.8697 3.80469H125.376C125.488 3.80469 125.579 3.71362 125.579 3.60129C125.579 3.48896 125.488 3.3979 125.376 3.3979H68.8597C68.0963 3.3979 67.3637 3.09689 66.8208 2.56019L65.269 1.02603C64.0564 -0.172794 62.1033 -0.167214 60.8975 1.03852L59.3875 2.54851C58.8437 3.09236 58.106 3.3979 57.3369 3.3979H0.623907C0.511574 3.3979 0.420508 3.48896 0.420508 3.60129C0.420508 3.71363 0.511572 3.80469 0.623906 3.80469H57.3269C58.1017 3.80469 58.8444 4.1148 59.3892 4.66583L60.8851 6.17896Z" fill="#F54B64" stroke="#F54B64" stroke-width="0.2"/>
</svg>
