<svg width="67" height="40" viewBox="0 0 67 40" fill="none" xmlns="http://www.w3.org/2000/svg">
<path d="M60.73 1.69649C55.9783 1.69649 48.9793 4.64291 41.5307 7.90959C40.5033 7.58933 39.4118 7.20501 38.3844 6.8207C27.0831 2.72133 15.3966 -1.50615 1.59111 1.63243L1.5269 1.69649L0.371094 4.64291L0.692152 4.45075C0.692152 4.45075 3.51746 2.84943 9.55335 2.65728C15.1398 2.52917 24.7073 3.55401 38.6412 9.19065C35.0454 10.792 31.4495 12.3933 27.9821 13.6743C27.4684 13.4181 27.0189 13.1619 26.5052 12.8417C21.3683 10.0233 16.8735 7.58933 13.0208 7.58933C10.2597 7.58933 8.01227 9.83117 8.01227 12.5214C8.01227 15.2757 10.2597 17.5175 13.0208 17.5175C17.3872 17.5175 22.5883 16.0443 27.9821 13.9946C30.9358 15.5959 34.018 17.1972 37.357 18.5423C36.9717 18.7985 36.5864 18.9907 36.2012 19.1829C34.2748 20.3358 32.2843 21.4888 30.2937 22.4495C26.7621 20.528 23.4873 18.9266 20.662 18.9266C18.864 18.9266 17.3872 20.3999 17.3872 22.1293C17.3872 23.9228 18.864 25.396 20.662 25.396C23.9368 25.396 27.1473 24.243 30.2937 22.7058C30.8074 22.962 31.7706 23.5384 31.7706 23.5384C33.5685 24.5633 35.4306 25.5241 37.2928 26.4208C36.3296 26.9973 35.3664 27.6378 34.4675 28.3424C33.4401 28.9829 32.4769 29.6875 31.5137 30.264C29.1379 29.3032 26.8263 28.7267 25.542 28.7267C24.3862 28.7267 23.4231 29.6875 23.4231 30.8404C23.4231 31.9934 24.3862 32.9542 25.542 32.9542C27.34 32.9542 29.3947 31.9293 31.5779 30.5202C32.5411 30.9685 33.5685 31.4169 34.5959 31.9934C36.9075 33.2744 40.8244 35.9647 40.8244 39.4876V39.6157L42.8792 40L42.9434 39.8719C42.9434 39.8078 43.2002 38.2065 42.1086 36.1568C41.0812 34.2352 38.7696 31.545 33.1832 29.4953C33.6327 29.1751 34.1464 28.8548 34.5959 28.5345C35.5591 27.83 36.5864 27.1894 37.5496 26.5489C40.1181 27.7019 42.6865 28.5345 45.0624 28.5345C46.5392 28.5345 47.695 27.3175 47.695 25.9084C47.695 24.4992 46.5392 23.2822 45.0624 23.2822C42.7508 23.2822 40.1181 24.6273 37.5496 26.2287C35.6875 25.396 33.7611 24.3071 31.899 23.2822C31.899 23.2822 31 22.8339 30.5505 22.5777C32.5411 21.6169 34.4675 20.528 36.3296 19.4391C36.7791 19.1829 37.2285 18.9266 37.6138 18.6704C41.7876 20.3358 46.2824 21.4888 51.1625 21.4888C53.4099 21.4888 55.2078 19.6953 55.2078 17.4534C55.2078 15.2756 53.4099 13.4822 51.1625 13.4822C46.6677 13.4822 42.0444 15.8521 37.6138 18.4142C34.339 17.0691 31.1927 15.4678 28.3031 13.8665C32.0916 12.3933 36.0085 10.6639 39.8612 8.93443C40.3749 8.67823 40.9528 8.48607 41.5307 8.22986C48.0803 10.5358 54.373 12.5214 60.73 12.5214C64.7111 12.5214 66.8943 10.856 66.8943 7.84554C66.8943 4.45075 64.1332 1.69649 60.73 1.69649ZM13.0208 17.2613C10.3881 17.2613 8.26912 15.1475 8.26912 12.5214C8.26912 9.95928 10.3881 7.84554 13.0208 7.84554C16.8093 7.84554 21.2399 10.2795 26.3768 13.0979C26.8263 13.3541 27.2115 13.5462 27.661 13.8024C22.3957 15.8521 17.323 17.2613 13.0208 17.2613ZM20.662 25.1398C18.9925 25.1398 17.644 23.7947 17.644 22.1293C17.644 20.528 18.9925 19.1829 20.662 19.1829C23.3588 19.1829 26.5694 20.7201 30.0369 22.5777C26.9547 24.0509 23.8083 25.1398 20.662 25.1398ZM25.542 32.698C24.5147 32.698 23.6799 31.8653 23.6799 30.8404C23.6799 29.8156 24.5147 28.9829 25.542 28.9829C26.7621 28.9829 28.9453 29.4953 31.2569 30.4561C29.1379 31.7372 27.2115 32.698 25.542 32.698ZM41.8518 36.2209C42.7508 37.9503 42.7507 39.2954 42.6865 39.7438L41.0812 39.4235C41.017 35.4522 36.2654 32.1855 31.8348 30.3921C32.22 30.1359 32.5411 29.8797 32.9264 29.6875C38.5128 31.6731 40.8886 34.3633 41.8518 36.2209ZM45.0624 23.5384C46.3466 23.5384 47.4382 24.6273 47.4382 25.9084C47.4382 27.1894 46.3466 28.2783 45.0624 28.2783C42.7508 28.2783 40.3107 27.4457 37.8707 26.3568C40.3749 24.8195 42.815 23.5384 45.0624 23.5384ZM51.1625 13.7384C53.2815 13.7384 54.951 15.4038 54.951 17.4534C54.951 19.5031 53.2815 21.2325 51.1625 21.2325C46.4108 21.2325 42.0444 20.0796 37.9349 18.5423C42.4297 15.9162 46.7319 13.7384 51.1625 13.7384ZM38.9623 9.06254C25.7347 3.68212 16.424 2.40106 10.7092 2.40106C10.2597 2.40106 9.87441 2.40106 9.55335 2.40106C4.48064 2.59322 1.71954 3.68212 0.884787 4.06644L1.71954 1.88865C15.3966 -1.24993 27.0831 2.97754 38.3202 7.07691C39.2833 7.39717 40.2465 7.71744 41.1455 8.10175C40.3749 8.42202 38.9623 9.06254 38.9623 9.06254ZM60.73 12.2652C54.5015 12.2652 48.2729 10.3436 41.8518 8.0377C49.2361 4.83507 56.0425 1.9527 60.73 1.9527C64.0048 1.9527 66.6375 4.57885 66.6375 7.84554C66.6375 11.4965 63.4269 12.2652 60.73 12.2652Z" fill="#ED0006"/>
</svg>
